# xmcd
#
# Track frame offsets: 
#        150
#        15260
#        36389
#        50949
#        62977
#        79725
#        91824
#        108930
#        123379
#        138252
#        153591
#        169418
#        181919
#        196694
#        211343
#        224270
#        242369
#        256349
#        268175
#        280808
#        296497
#        311761
#        323935
#
# Disc length: 4488 seconds
#
# Revision: 0
# Processed by: cddbd v1.5.2PL0 Copyright (c) Steve Scherf et al.
# Submitted via: ExactAudioCopy v1.1
#
DISCID=52118617
DTITLE=Various Artist - 69 Hits Summer 2017 -  CD 3
DYEAR=2017
DGENRE=Pop
TTITLE0=AJR - Weak
TTITLE1=Martin Garrix and Brooks - Byte
TTITLE2=Alok and Bruno Martini Feat. Zeeba - Hear Me Now
TTITLE3=Bassjackers Vs. D'Angello and Francis - All Aboard (Dimitri Vega
TTITLE3=s and Like Mike Edit)
TTITLE4=Starley - Call On Me (Ryan Riback Extended Remix)
TTITLE5=Alan Walker - Alone
TTITLE6=The Avener Feat. Mark Asari - I Need A Good One
TTITLE7=Hardwell and Jay Sean - Thinking About You
TTITLE8=Steve Aoki and Louis Tomlinson - Just Hold On
TTITLE9=Mike Perry Feat. Casso - Inside The Lines
TTITLE10=Tungevaag and Raaban Feat. Clara Mae - Wake Up Alone
TTITLE11=Alle Farben - Bad Ideas
TTITLE12=Bakermat Feat. Alex Clare - Living
TTITLE13=Feder Feat. Alex Aiono - Lordly
TTITLE14=Odyssey Feat. Amara Abonta - Fly
TTITLE15=Burak Yeter Feat. Danelle Sandoval - Tuesday
TTITLE16=Mosimann Feat. Joe Cleere - Never Let You Go
TTITLE17=Lost Frequencies Feat. Axel Ehnström - All Or Nothing
TTITLE18=Basada - Get Get Down
TTITLE19=Consoul Trainin - Take Me To Infinity
TTITLE20=Sigala and Digital Farm Animals - Only One
TTITLE21=Nils Van Zandt - The Riddle
TTITLE22=Era Istrefi Feat. Felix Snow - Redrum
EXTD=
EXTT0=
EXTT1=
EXTT2=
EXTT3=
EXTT4=
EXTT5=
EXTT6=
EXTT7=
EXTT8=
EXTT9=
EXTT10=
EXTT11=
EXTT12=
EXTT13=
EXTT14=
EXTT15=
EXTT16=
EXTT17=
EXTT18=
EXTT19=
EXTT20=
EXTT21=
EXTT22=
PLAYORDER=
